<?xml version="1.0" encoding="UTF-8" standalone="no"?>
<!-- Created with Inkscape (http://www.inkscape.org/) -->

<svg
   version="1.1"
   id="svg1"
   width="1322.6667"
   height="1152"
   viewBox="0 0 1322.6667 1152"
   sodipodi:docname="photo_2026-03-13_20-33-44.jpg"
   inkscape:export-filename="photo_2026-03-13_20-33-44.svg"
   inkscape:export-xdpi="600"
   inkscape:export-ydpi="600"
   xmlns:inkscape="http://www.inkscape.org/namespaces/inkscape"
   xmlns:sodipodi="http://sodipodi.sourceforge.net/DTD/sodipodi-0.dtd"
   xmlns="http://www.w3.org/2000/svg"
   xmlns:svg="http://www.w3.org/2000/svg">
  <defs
     id="defs1" />
  <sodipodi:namedview
     id="namedview1"
     pagecolor="#ffffff"
     bordercolor="#000000"
     borderopacity="0.25"
     inkscape:showpageshadow="2"
     inkscape:pageopacity="0.0"
     inkscape:pagecheckerboard="0"
     inkscape:deskcolor="#d1d1d1">
    <inkscape:page
       x="0"
       y="0"
       width="1322.6667"
       height="1152"
       id="page2"
       margin="0"
       bleed="0" />
  </sodipodi:namedview>
  <g
     inkscape:groupmode="layer"
     inkscape:label="Image"
     id="g1">
    <path
       style="fill:#000000;stroke-width:1.47583"
       d="M 635.68778,942.0478 C 516.5616,930.61214 418.53576,853.17633 380.32695,740.32474 c -10.84266,-32.0243 -15.9619,-63.26373 -15.9619,-97.40508 0,-61.19585 16.06683,-112.39102 52.25401,-166.50158 19.38372,-28.98439 39.49009,-51.07232 87.56696,-96.19696 93.87403,-88.10958 120.97492,-128.71541 109.19403,-163.60771 -1.32195,-3.91533 -0.43252,-4.39478 12.41047,-6.68996 25.14825,-4.49424 49.59844,3.83683 66.93689,22.80785 11.92081,13.04327 18.09855,28.16197 19.456,47.61445 2.6986,38.67166 -16.02839,72.40267 -49.13474,88.50141 -38.56549,18.75335 -133.51101,105.08681 -167.39291,152.20944 -40.48195,56.30195 -53.89085,121.01915 -38.0011,183.40999 5.39875,21.19806 17.98881,49.28141 30.04242,67.01251 23.20917,34.14116 65.57616,64.87375 109.84983,79.68398 40.42683,13.5234 90.12489,13.99286 128.00731,1.20918 62.55692,-21.11025 115.67599,-75.17828 135.21312,-137.62865 8.10803,-25.91729 9.93367,-40.87607 8.7864,-71.99355 -1.26569,-34.33001 -6.54993,-55.78787 -21.10664,-85.70825 -23.21806,-47.72331 -65.40364,-87.54864 -107.01754,-101.03004 -4.20002,-1.36064 -11.12677,-5.62725 -15.39279,-9.48135 -11.17816,-10.09881 -15.34254,-19.42503 -15.34254,-34.36007 0,-16.83992 6.78431,-30.62023 19.38202,-39.36883 8.33653,-5.78939 10.47013,-6.35485 23.97778,-6.35485 13.89808,0 16.17877,0.65621 36.40392,10.47435 60.9525,29.58893 109.72394,77.01003 137.6061,133.7962 23.3716,47.59973 31.98759,88.18113 29.94848,141.05745 -2.26321,58.68703 -20.86739,117.40638 -51.97469,164.04492 -16.23443,24.33992 -53.49162,61.1623 -78.82795,77.90798 -55.43823,36.64107 -126.47834,54.5642 -191.52211,48.32023 z m -4.68861,-186.7022 c -37.12249,-10.66719 -68.21819,-43.63539 -75.85688,-80.42477 -3.36038,-16.18419 -1.41721,-43.98374 4.09373,-58.56619 23.55029,-62.31608 93.42291,-88.65547 152.30314,-57.41263 22.90168,12.152 43.39083,37.87295 51.11355,64.16507 3.5839,12.2015 4.12629,41.67704 1.01532,55.1779 -4.11723,17.86775 -13.56798,33.83842 -29.17265,49.29835 -15.88035,15.73303 -28.81258,23.29951 -48.65628,28.46814 -14.88471,3.87697 -40.01714,3.55348 -54.83993,-0.70587 z"
       id="path1" />
  </g>
</svg>
